<svg xmlns="http://www.w3.org/2000/svg" xmlns:xlink="http://www.w3.org/1999/xlink" viewBox="890 -217 1920 1080"><defs><style>.a{clip-path:url(#b);}.b{fill:#1976d2;}.c{fill:rgba(220,25,52,0.77);}.d{fill:#fff;}</style><clipPath id="b"><rect x="890" y="-217" width="1920" height="1080"/></clipPath></defs><g id="a" class="a"><rect class="d" x="890" y="-217" width="1920" height="1080"/><circle class="b" cx="25" cy="25" r="25" transform="translate(2076 260)"/><circle class="b" cx="25" cy="25" r="25" transform="translate(1659 503)"/><circle class="b" cx="25" cy="25" r="25" transform="translate(1964 266)"/><circle class="b" cx="25" cy="25" r="25" transform="translate(1869 503)"/><circle class="b" cx="25" cy="25" r="25" transform="translate(1758 195)"/><circle class="b" cx="25" cy="25" r="25" transform="translate(1659 33)"/><circle class="b" cx="25" cy="25" r="25" transform="translate(1440 266)"/><circle class="b" cx="25" cy="25" r="25" transform="translate(1490 334)"/><circle class="b" cx="25" cy="25" r="25" transform="translate(1564 266)"/><circle class="c" cx="17.5" cy="17.5" r="17.5" transform="translate(1765 273)"/><circle class="b" cx="25" cy="25" r="25" transform="translate(1758 553)"/><circle class="b" cx="25" cy="25" r="25" transform="translate(1490 207)"/><circle class="b" cx="25" cy="25" r="25" transform="translate(1976 373)"/><circle class="b" cx="25" cy="25" r="25" transform="translate(1540 378)"/><circle class="b" cx="25" cy="25" r="25" transform="translate(1758 340)"/><circle class="b" cx="25" cy="25" r="25" transform="translate(1869 33)"/><circle class="b" cx="25" cy="25" r="25" transform="translate(1540 153)"/><circle class="b" cx="25" cy="25" r="25" transform="translate(1976 145)"/><circle class="b" cx="25" cy="25" r="25" transform="translate(1758 -17)"/><circle class="b" cx="22.5" cy="22.5" r="22.5" transform="translate(1760.235 461.532)"/><circle class="b" cx="22.5" cy="22.5" r="22.5" transform="translate(1918.969 341.048)"/><circle class="b" cx="22.5" cy="22.5" r="22.5" transform="translate(1613.5 344.395)"/><circle class="b" cx="22.5" cy="22.5" r="22.5" transform="translate(1613.5 193.79)"/><circle class="b" cx="22.5" cy="22.5" r="22.5" transform="translate(1918.969 188.435)"/><circle class="b" cx="22.5" cy="22.5" r="22.5" transform="translate(1760.235 78)"/><circle class="b" cx="25" cy="25" r="25" transform="translate(2026 324)"/><circle class="b" cx="25" cy="25" r="25" transform="translate(2026 197)"/></g></svg>